<?xml version="1.0" encoding="utf-8"?>
<!-- Generator: Adobe Illustrator 19.2.0, SVG Export Plug-In . SVG Version: 6.00 Build 0)  -->
<svg version="1.1" id="Layer_1" xmlns="http://www.w3.org/2000/svg" xmlns:xlink="http://www.w3.org/1999/xlink" x="0px" y="0px"
	 viewBox="0 0 360 360" style="enable-background:new 0 0 360 360;" xml:space="preserve">
<style type="text/css">
	.st0{fill:#FFFFFF;}
</style>
<g>
	<path class="st0" d="M306.2,53.8C272.5,20,227.7,1.5,180,1.5S87.5,20,53.8,53.8S1.5,132.3,1.5,180S20,272.5,53.8,306.2
		s78.6,52.3,126.2,52.3s92.5-18.6,126.2-52.3s52.3-78.6,52.3-126.2S340,87.5,306.2,53.8z M180,344.3c-90.6,0-164.3-73.7-164.3-164.3
		S89.4,15.7,180,15.7S344.3,89.4,344.3,180S270.6,344.3,180,344.3z"/>
	<path class="st0" d="M180,29.5C97,29.5,29.5,97,29.5,180S97,330.5,180,330.5S330.5,263,330.5,180S263,29.5,180,29.5z M254.2,294.3
		l-11.8-20.5c-2-3.4-6.3-4.6-9.7-2.6c-3.4,2-4.6,6.3-2.6,9.7l11.8,20.5c-16.6,8.5-35.1,13.7-54.8,14.7v-23.7c0-3.9-3.2-7.1-7.1-7.1
		s-7.1,3.2-7.1,7.1v23.7c-19.6-1-38.2-6.2-54.8-14.7l11.8-20.5c2-3.4,0.8-7.8-2.6-9.7c-3.4-2-7.8-0.8-9.7,2.6l-11.8,20.5
		c-16-10.4-29.7-24.1-40.1-40.1l20.5-11.8c3.4-2,4.6-6.3,2.6-9.7c-2-3.4-6.3-4.6-9.7-2.6l-20.5,11.8c-8.5-16.6-13.7-35.1-14.7-54.8
		h23.7c3.9,0,7.1-3.2,7.1-7.1s-3.2-7.1-7.1-7.1H43.9c1-19.6,6.2-38.2,14.7-54.8L79.1,130c1.1,0.6,2.3,1,3.6,1c2.5,0,4.8-1.3,6.2-3.6
		c2-3.4,0.8-7.8-2.6-9.7l-20.5-11.8c10.4-16,24.1-29.7,40.1-40.1l11.8,20.5c1.3,2.3,3.7,3.6,6.2,3.6c1.2,0,2.4-0.3,3.6-1
		c3.4-2,4.6-6.3,2.6-9.7l-11.8-20.5c16.6-8.5,35.1-13.7,54.8-14.7v23.7c0,3.9,3.2,7.1,7.1,7.1c3.9,0,7.1-3.2,7.1-7.1V43.9
		c19.6,1,38.2,6.2,54.8,14.7L230,79.1c-2,3.4-0.8,7.8,2.6,9.7c1.1,0.6,2.3,1,3.6,1c2.5,0,4.8-1.3,6.2-3.6l11.8-20.5
		c16,10.4,29.7,24.1,40.1,40.1l-20.5,11.8c-3.4,2-4.6,6.3-2.6,9.7c1.3,2.3,3.7,3.6,6.2,3.6c1.2,0,2.4-0.3,3.6-1l20.5-11.8
		c8.5,16.6,13.7,35.1,14.7,54.8h-23.7c-3.9,0-7.1,3.2-7.1,7.1c0,3.9,3.2,7.1,7.1,7.1h23.7c-1,19.6-6.2,38.2-14.7,54.8L280.9,230
		c-3.4-2-7.8-0.8-9.7,2.6c-2,3.4-0.8,7.8,2.6,9.7l20.5,11.8C283.8,270.2,270.2,283.8,254.2,294.3z"/>
	<path class="st0" d="M187.1,160.2v-45.6c0-3.9-3.2-7.1-7.1-7.1s-7.1,3.2-7.1,7.1v45.6c-8.1,2.9-13.9,10.7-13.9,19.8
		c0,5.2,1.9,9.9,5,13.6l-11.3,19.6c-2,3.4-0.8,7.8,2.6,9.7c1.1,0.6,2.3,1,3.6,1c2.5,0,4.8-1.3,6.2-3.6l11.3-19.5
		c1.2,0.2,2.5,0.3,3.7,0.3c11.6,0,21-9.4,21-21C201,170.9,195.2,163.1,187.1,160.2z M180,186.8c-3.8,0-6.8-3.1-6.8-6.8
		s3.1-6.8,6.8-6.8s6.8,3.1,6.8,6.8S183.8,186.8,180,186.8z"/>
	<path class="st0" d="M180,101c3.9,0,7.1-3.2,7.1-7.1v-2.8c0-3.9-3.2-7.1-7.1-7.1s-7.1,3.2-7.1,7.1v2.8
		C172.9,97.9,176.1,101,180,101z"/>
</g>
</svg>
