<?xml version="1.0" encoding="utf-8"?>
<!-- Generator: Adobe Illustrator 19.2.0, SVG Export Plug-In . SVG Version: 6.00 Build 0)  -->
<svg version="1.1" id="Layer_1" xmlns="http://www.w3.org/2000/svg" xmlns:xlink="http://www.w3.org/1999/xlink" x="0px" y="0px"
	 viewBox="0 0 360 360" style="enable-background:new 0 0 360 360;" xml:space="preserve">
<style type="text/css">
	.st0{fill:#FFFFFF;}
	.st1{clip-path:url(#SVGID_2_);fill:#FFFFFF;}
</style>
<g>
	<path class="st0" d="M176.6,61.4L130,14.6c-2-2-5-2.6-7.7-1.5c-2.6,1.1-4.3,3.6-4.3,6.5v6.3H42.1C18.9,25.8,0,44.8,0,68v31.8
		c0,1.4,0.4,2.7,1.1,3.8l53.7,93c0.9,1.6,2.5,2.8,4.3,3.3c0.6,0.2,1.2,0.2,1.8,0.2c1.2,0,2.4-0.3,3.5-0.9l58-33.5
		c3.4-1.9,4.5-6.2,2.6-9.6l-28.5-49.3H118v6.1c0,2.8,1.7,5.4,4.3,6.5c0.9,0.4,1.8,0.5,2.7,0.5c1.8,0,3.6-0.7,5-2.1l46.6-46.6
		C179.4,68.6,179.4,64.1,176.6,61.4L176.6,61.4z M131.3,96.7c-1.1-2.3-3.5-3.9-6.3-3.9H64.4c-3.9,0-7,3.1-7,7s3.1,7,7,7h15.9
		l29,50.3l-45.8,26.5L14,97.9V68c0-15.5,12.6-28.1,28.1-28.1H125c2.8,0,5.2-1.6,6.3-4l30.4,30.5L131.3,96.7z M131.3,96.7"/>
	<path class="st0" d="M272.6,224.5l-58-33.5c-1.6-0.9-3.6-1.2-5.4-0.7c-1.8,0.5-3.4,1.7-4.3,3.3l-24.8,44.4l-10.6-18.4l5.3-3.1
		c2.5-1.4,3.8-4.2,3.5-7s-2.4-5.1-5.1-5.9l-63.7-17.1c-1.8-0.5-3.7-0.2-5.3,0.7c-1.6,0.9-2.8,2.5-3.3,4.3l-17.1,63.7
		c-0.7,2.7,0.3,5.7,2.5,7.4c2.3,1.7,5.3,1.9,7.8,0.5l5.3-3.1l37.9,65.7c5.6,9.8,14.7,16.7,25.6,19.6c3.6,1,7.3,1.5,11,1.5
		c7.3,0,14.5-1.9,21-5.7l27.6-15.9c1.3-0.7,2.2-1.8,2.8-3l49.9-88.3C277.1,230.6,275.9,226.4,272.6,224.5L272.6,224.5z M213.7,314.2
		l-25.9,15c-6.5,3.8-14.1,4.8-21.3,2.8c-7.2-1.9-13.3-6.6-17.1-13.1L108,247c-0.9-1.6-2.5-2.8-4.3-3.3c-0.8-0.2-1.5-0.3-2.3-0.2
		l11.1-41.5l41.5,11.1c-1.4,2.2-1.6,5-0.3,7.4l32.3,56c1.9,3.4,6.2,4.5,9.6,2.6c3.4-1.9,4.5-6.2,2.6-9.6l-10-17.3l25.4-45.5
		l45.8,26.4L213.7,314.2z M213.7,314.2"/>
	<g>
		<defs>
			<rect id="SVGID_1_" y="11.9" width="360" height="336.3"/>
		</defs>
		<use xlink:href="#SVGID_1_"  style="overflow:visible;fill:#FFFFFF;"/>
		<clipPath id="SVGID_2_">
			<use xlink:href="#SVGID_1_"  style="overflow:visible;"/>
		</clipPath>
		<path class="st1" d="M209.4,289.3c-1.3-1.3-3.1-2.1-5-2.1c-1.8,0-3.7,0.8-5,2.1c-1.3,1.3-2.1,3.1-2.1,5c0,1.8,0.8,3.7,2.1,5
			c1.3,1.3,3.1,2.1,5,2.1c1.8,0,3.7-0.8,5-2.1c1.3-1.3,2.1-3.1,2.1-5C211.5,292.4,210.7,290.6,209.4,289.3L209.4,289.3z
			 M209.4,289.3"/>
		<path class="st1" d="M338.6,41.9L311,26c-1.2-0.7-2.5-1-3.9-0.9H199.7c-3.9,0-7,3.1-7,7v67c0,3.9,3.1,7,7,7h56.9l-10.7,18.6
			l-5.3-3.1c-2.5-1.4-5.5-1.2-7.8,0.5c-2.3,1.7-3.2,4.6-2.5,7.4l17.1,63.7c0.8,3.1,3.7,5.2,6.8,5.2c0.6,0,1.2-0.1,1.8-0.2l63.7-17.1
			c2.7-0.7,4.8-3.1,5.1-5.9c0.4-2.8-1-5.6-3.4-7l-5.3-3.1L354,99.5C365.6,79.4,358.7,53.6,338.6,41.9L338.6,41.9z M341.8,92.5
			l-41.4,71.8c-1.4,2.4-1.2,5.3,0.3,7.4l-41.5,11.1L248,141.3c2.6,0.2,5.2-1.1,6.6-3.5L289.1,78c1.9-3.4,0.8-7.7-2.6-9.6
			c-3.4-1.9-7.7-0.8-9.6,2.6l-12.2,21.1h-58V39.1h98.9l25.9,15C345,61.9,349.6,79.1,341.8,92.5L341.8,92.5z M341.8,92.5"/>
	</g>
	<path class="st0" d="M299.8,49.2c-1.3-1.3-3.1-2.1-5-2.1c-1.8,0-3.7,0.7-5,2.1c-1.3,1.3-2.1,3.1-2.1,5c0,1.8,0.8,3.7,2.1,5
		c1.3,1.3,3.1,2.1,5,2.1c1.8,0,3.7-0.8,5-2.1c1.3-1.3,2.1-3.1,2.1-5C301.9,52.3,301.1,50.5,299.8,49.2L299.8,49.2z M299.8,49.2"/>
	<path class="st0" d="M45.1,94.9c-1.3-1.3-3.1-2.1-5-2.1c-1.9,0-3.7,0.8-5,2.1c-1.3,1.3-2.1,3.1-2.1,5c0,1.8,0.7,3.7,2.1,5
		c1.3,1.3,3.1,2.1,5,2.1c1.8,0,3.7-0.8,5-2.1c1.3-1.3,2.1-3.1,2.1-5C47.2,98,46.4,96.2,45.1,94.9L45.1,94.9z M45.1,94.9"/>
</g>
</svg>
