<?xml version="1.0" encoding="utf-8"?>
<!-- Generator: Adobe Illustrator 19.2.0, SVG Export Plug-In . SVG Version: 6.00 Build 0)  -->
<svg version="1.1" id="Layer_1" xmlns="http://www.w3.org/2000/svg" xmlns:xlink="http://www.w3.org/1999/xlink" x="0px" y="0px"
	 viewBox="0 0 360 360" style="enable-background:new 0 0 360 360;" xml:space="preserve">
<style type="text/css">
	.st0{fill:#FFFFFF;}
</style>
<g>
	<path class="st0" d="M305.5,54.5C272,21,227.5,2.5,180,2.5S88,21,54.5,54.5s-52,78.1-52,125.5s18.5,92,52,125.5
		c33.5,33.5,78.1,52,125.5,52s92-18.5,125.5-52c33.5-33.5,52-78,52-125.5S339,88,305.5,54.5L305.5,54.5z M263.2,78.8l7.8-32.4
		c31.1,21.2,54.4,53,64.7,90.1l-4.1,0.8c-6.1,1.1-11,5.9-12.5,11.8l-1.6,6.4c0,0.1,0,0.1-0.1,0.1s-0.1,0-0.2,0l-9.5-7.1
		c-4.9-3.7-11.6-4.2-17-1.4l-11.8,6.2c-5.6,3-8.9,8.7-8.5,15.1c0.3,6.4,4.4,11.7,10.3,14l0.6,0.2c0.1,0,0.1,0,0.1,0.1s0,0.1,0,0.2
		l-7.3,8.5c-0.1,0.1-0.2,0.1-0.3,0l-19.7-12.7c-4.6-3-10.2-3.3-15.1-1.1s-8.4,6.7-9.3,12l-1.5,9.4c-0.9,5.3,0.9,10.7,4.8,14.2
		l10.3,9.6c0.1,0.1,0.1,0.2,0,0.3l-16.9,25.5c-1.6,2.4-2.5,5.3-2.6,8.1l-1.5,36.6c0,0.1,0,0.1-0.1,0.1l-22.5,22
		c-0.1,0.1-0.2,0.1-0.2,0l-14.6-8.5l-0.1-0.1c0,0-7.1-32-7.3-32.8l-6.4-17.2c-2.2-5.7-7.5-9.9-13.7-10.3l-29.4-2.5
		c-0.1,0-0.1,0-0.2-0.1l-16.8-28.8v-0.1l4.2-28c0-0.1,0-0.1,0.1-0.1l25.7-19.4c0.1,0,0.1-0.1,0.2,0L166,178c1.4,0.6,2.9,0.9,4.5,1.1
		l34.4,3.8c3.9,0.5,7.8-0.6,11-2.9l22.8-16.4c6.2-4.4,8.4-12.6,5.3-19.5l-2.1-4.7c-2.4-5.5-7.7-9.2-13.8-9.4l-64.1-3.6h-0.1
		c-0.1,0-0.1-0.1-0.1-0.1l0,0c0-0.1,0-0.2,0-0.3c0,0,0,0,0.1,0l19.3-5.2c2.5-0.7,4.9-2,6.8-3.8l23.5-22.3c0,0,0.1,0,0.1-0.1
		l35.5-3.7C256,90.3,261.6,85.5,263.2,78.8L263.2,78.8z M143.2,65.8l13.2-24.9c2-3.7,2.5-7.9,1.7-12l-1.8-8.7
		c7.7-1.1,15.6-1.7,23.6-1.7c8.1,0,16.1,0.6,23.9,1.7c0,0-2,2.1-2.2,2.2l-18.7,7.6c-2.6,1-5,2.8-7,5l-29.1,34
		c-0.3,0.5-1,0.7-1.6,0.8c-0.9,0-1.5-0.5-1.7-0.8C142.3,67.8,143.1,66,143.2,65.8L143.2,65.8z M74.2,57.8v23.6
		c0,6.7-3.3,12.7-8.8,16.3l-17,11c-3.9,2.5-7.2,5.9-9.9,9.6L23.2,141C31.2,108.2,49.4,79.3,74.2,57.8L74.2,57.8z M84.5,290.6
		l-2.2,18.1c-25.2-19.3-44.7-45.7-55.3-76.3h10.1c1.3,0,2.4,0.6,3,1.6l20.3,31.7c0.9,1.4,2,2.8,3.2,3.9l19.7,18
		C84.3,288.3,84.7,289.5,84.5,290.6L84.5,290.6z M180,341.7c-30.3,0-58.7-8.4-83.1-22.9l3.2-26.2c0.8-6.2-1.5-12.5-6.2-16.6
		c0,0-20.2-18.5-20.3-18.7l-20.3-31.7c-3.6-5.6-9.6-8.9-16.3-8.9H22.5c-2.8-11.8-4.1-24-4.1-36.6c0-1.4,0-2.8,0-4l33.2-48.6
		c1.5-2.2,3.3-3.9,5.5-5.4l17-11C84.1,104.4,90,93.4,90,81.4V45.8c15.3-10.3,32.5-18,50.8-22.6l1.8,8.8c0.1,0.5,0,1-0.2,1.5
		l-13.2,24.9c-0.8,1.6-2,5.6-2,5.6c-1,5.4,0.3,11,4,15.1c3.4,4,8.4,6.3,13.7,6.3c0.2,0,7.9,0.3,13.7-6.3L187.9,45
		c0.2-0.2,0.6-0.5,0.8-0.6l18.7-7.6c2.6-1,5-2.8,6.9-4.9l7.1-8.3c12.5,3.3,24.3,8,35.5,14.1c-0.2,0.5-9.1,37.3-9.1,37.3
		c0,0.1-0.1,0.1-0.2,0.2l-35.5,3.7c-3.4,0.3-6.8,1.8-9.3,4.2l-23.5,22.3h-0.1l-19.3,5.2c-6.3,1.7-10.9,7-11.7,13.4
		c-0.8,6.4,2.3,12.7,7.9,15.9c2.2,1.3,4.6,2,7.1,2.1l64.1,3.6c0.1,0,0.1,0,0.2,0.1l2.1,4.7c0,0.1,0,0.2-0.1,0.2L206.7,167h-0.1
		l-34.5-3.8l-24.9-10.3c-5.3-2.2-11.2-1.4-15.8,2l-25.7,19.4c-3.3,2.5-5.5,6.2-6.2,10.4l-4.2,28c-0.6,3.6,0.1,7.2,2,10.4l16.8,28.8
		c2.6,4.5,7.2,7.5,12.5,7.9l29.4,2.5c0.1,0,0.1,0.1,0.2,0.1l6.4,17.3l6.7,30.6c0.9,4.4,3.7,8.1,7.6,10.4l14.6,8.5
		c2.5,1.5,5.3,2.2,8,2.2c4.1,0,8.1-1.6,11.2-4.6l22.5-22c2.9-2.9,4.6-6.7,4.8-10.8l1.5-36.6v-0.1l16.9-25.6
		c4.4-6.5,3.3-15.1-2.4-20.5l-10.3-9.6c-0.1,0-0.1-0.1-0.1-0.2l1.5-9.4c0-0.1,0-0.1,0.1-0.2c0.1,0,0.1,0,0.2,0l19.8,12.9
		c6.7,4.2,15.6,3,20.8-3l7.3-8.5c3.4-3.9,4.7-9.3,3.4-14.5c-1.3-5-4.9-9.2-9.9-11l-0.6-0.2c-0.1,0-0.1,0-0.1,0c0-0.1,0-0.2,0-0.3
		c0,0,0,0,0.1-0.1l11.8-6.2c0.1,0,0.2,0,0.2,0l9.5,7.1c4.4,3.2,9.9,4.1,14.9,2.3c5-1.8,8.8-6,10.2-11.2l1.6-6.4
		c0-0.1,0.1-0.1,0.2-0.1l4.6-0.9c1.6,9.2,2.4,18.5,2.4,28.1C341.7,269.2,269.2,341.7,180,341.7L180,341.7z"/>
</g>
</svg>
