<?xml version="1.0" encoding="utf-8"?>
<!-- Generator: Adobe Illustrator 19.2.0, SVG Export Plug-In . SVG Version: 6.00 Build 0)  -->
<svg version="1.1" id="Layer_1" xmlns="http://www.w3.org/2000/svg" xmlns:xlink="http://www.w3.org/1999/xlink" x="0px" y="0px"
	 viewBox="0 0 360 360" style="enable-background:new 0 0 360 360;" xml:space="preserve">
<style type="text/css">
	.st0{fill:#FFFFFF;}
</style>
<g>
	<path class="st0" d="M356.5,175.3l-20.8-12.1l-11.9-50.7c-3.2-13.5-15.1-22.9-28.9-22.9h-59.7v-9.5c0-4-3.2-7.2-7.2-7.2H7.1
		c-4,0-7.2,3.2-7.2,7.2v171c0,4,3.2,7.2,7.2,7.2h23.1c3.3,16.4,17.9,28.8,35.2,28.8c17.4,0,31.9-12.4,35.2-28.8h145.3
		c3.3,16.4,17.9,28.8,35.2,28.8c17.4,0,31.9-12.4,35.2-28.8H353c4,0,7.2-3.2,7.2-7.2v-69.6C360.1,179,358.7,176.6,356.5,175.3
		L356.5,175.3z M65.4,272.7c-11.9,0-21.6-9.7-21.6-21.6s9.7-21.6,21.6-21.6S87,239.2,87,251.1C86.9,263,77.3,272.7,65.4,272.7
		L65.4,272.7z M220.9,218.2h-64.7c-4,0-7.2,3.2-7.2,7.2s3.2,7.2,7.2,7.2h64.7V244H100.6c-3.3-16.4-17.9-28.8-35.2-28.8
		c-17.4,0-31.9,12.4-35.2,28.8H14.3v-37.1h206.6L220.9,218.2L220.9,218.2z M220.9,96.8v95.7H14.3V87.3h206.6L220.9,96.8L220.9,96.8z
		 M276.8,103.9h18.1c7.2,0,13.3,4.9,14.9,11.9l10.5,44.9h-43.6v-56.8H276.8z M281,272.7c-11.4,0-20.8-8.9-21.5-20.1
		c0.1-0.5,0.1-0.9,0.1-1.4s0-1-0.1-1.4c0.7-11.2,10.1-20.1,21.5-20.1c11.9,0,21.6,9.7,21.6,21.6C302.6,263,292.9,272.7,281,272.7
		L281,272.7z M345.7,209.9H332v-7.6h13.7V209.9z M345.7,188h-20.8c-4,0-7.2,3.2-7.2,7.2v21.9c0,4,3.2,7.2,7.2,7.2h20.8V244h-29.5
		c-3.3-16.4-17.9-28.8-35.2-28.8c-17.4,0-31.9,12.4-35.2,28.8h-10.6V104h27.3v64c0,4,3.2,7.2,7.2,7.2h57.9l18.2,10.6v2.2H345.7z"/>
	<path class="st0" d="M131.9,218.2h-6.1c-4,0-7.2,3.2-7.2,7.2s3.2,7.2,7.2,7.2h6.1c4,0,7.2-3.2,7.2-7.2
		C139.1,221.4,135.9,218.2,131.9,218.2L131.9,218.2z"/>
</g>
</svg>
